<svg width="64" height="64" version="1.1" viewBox="0 0 16.9 16.9" xmlns="http://www.w3.org/2000/svg">
 <rect width="16.9" height="16.9" ry="1.77" fill="#4d1e4d"/>
 <g transform="matrix(1 0 -.261 1 38.6 .806)" stroke-linecap="round" stroke-linejoin="round" stroke-width=".065">
  <path d="m-34 2.74h2.66v2.66h-2.66z"/>
  <path d="m-34 5.4h2.66v2.66h-2.66z" fill="#f9f9f9"/>
  <path transform="scale(1,-1)" d="m-31.4-8.06h2.66v2.66h-2.66z"/>
  <path transform="scale(1,-1)" d="m-31.4-5.4h2.66v2.66h-2.66z" fill="#f9f9f9"/>
  <path d="m-28.7 2.74h2.66v2.66h-2.66z"/>
  <path d="m-28.7 5.4h2.66v2.66h-2.66z" fill="#f9f9f9"/>
  <path transform="scale(1,-1)" d="m-26.1-8.06h2.66v2.66h-2.66z"/>
  <path transform="scale(1,-1)" d="m-26.1-5.4h2.66v2.66h-2.66z" fill="#f9f9f9"/>
 </g>
 <g transform="matrix(.431 0 .0425 .431 10.1 3.23)" fill="#fff" fill-opacity=".8" stroke-width=".265" aria-label="DRIFT">
  <path d="m-21.2 19h1.99q.785 0 1.56.093.775.0878 1.61.46t1.4 1.2q.563.822.563 2.15 0 1.14-.398 1.95-.398.811-1.05 1.29-.656.475-1.43.682-.77.207-1.59.207v-1.77q1.15 0 1.69-.646.475-.574.475-1.69 0-1.03-.599-1.6-.594-.568-1.63-.568h-.351v6.1h-2.23z"/>
  <path d="m-13.1 19h3.14q.93 0 1.75.155.822.155 1.48.78.661.62.661 1.87 0 .811-.331 1.36-.331.548-.832.842-.501.295-1.05.388.734.372 1.2.522.47.15.847.176v1.94q-.512-.103-1.11-.305-.594-.207-1.18-.481-.584-.274-1-.506-.419-.238-.941-.574v-2.03q.382.119.749.119.574 0 .956-.305.388-.305.388-.977 0-.553-.274-.822-.274-.269-.599-.331-.326-.0672-.692-.0672h-.941v6.1h-2.23z"/>
  <path d="m-5.14 19h2.23v7.85h-2.23z"/>
  <path d="m3.47 19v1.76h-2.87v6.1h-2.23v-7.85zm.475 2.4v1.76h-2.93v-1.76z"/>
  <path d="m3.94 19h5.98v1.76h-1.87v6.1h-2.24v-6.1h-1.87z"/>
 </g>
</svg>
